<svg width="130" height="29" viewBox="0 0 130 29" fill="none" xmlns="http://www.w3.org/2000/svg">
<path d="M99.8766 0.486935H99.6856V26.6519H99.8766V0.486935Z" fill="#010101"/>
<path d="M125.249 0.711234C126.17 1.18861 126.963 1.85694 127.622 2.71621C128.28 3.57549 128.786 4.6114 129.149 5.81916C129.206 6.01011 129.259 6.21061 129.307 6.4111V0.424809H124.609C124.829 0.510736 125.044 0.601438 125.254 0.711234" fill="#19315B"/>
<path d="M124.232 5.40385C123.712 4.47297 123.029 4.00514 122.18 4.00514C121.33 4.00514 120.619 4.47297 120.113 5.40385C119.602 6.33951 119.349 7.80028 119.349 9.79571C119.349 11.7911 119.602 13.1899 120.113 14.1207C120.623 15.0564 121.311 15.5194 122.18 15.5194C123.048 15.5194 123.712 15.0516 124.232 14.1207C124.753 13.1899 125.01 11.7434 125.01 9.79571C125.01 7.84801 124.753 6.33951 124.232 5.40385Z" fill="#19315B"/>
<path d="M119.721 0.424809C119.501 0.510736 119.287 0.601438 119.077 0.711234C118.528 0.99766 118.022 1.34614 117.568 1.77101C117.372 1.53232 117.158 1.31273 116.928 1.12178C116.613 0.854447 116.265 0.620533 115.888 0.424809H119.716H119.721Z" fill="#19315B"/>
<path d="M119.974 19.1905H116.055C116.546 18.9709 117 18.6988 117.401 18.3837C117.559 18.2596 117.692 18.1403 117.816 18.0162L117.835 17.9971C118.217 18.3169 118.633 18.589 119.077 18.8181C119.363 18.9709 119.664 19.0903 119.974 19.1953" fill="#19315B"/>
<path d="M129.149 13.7389C128.786 14.9276 128.28 15.9492 127.622 16.8084C126.963 17.6677 126.175 18.336 125.249 18.8134C124.963 18.9614 124.662 19.0855 124.356 19.1858H129.307V13.1565C129.259 13.3522 129.206 13.548 129.149 13.7389Z" fill="#19315B"/>
<path d="M113.954 15.2187C113.563 15.5672 113.057 15.7439 112.446 15.7439C111.835 15.7439 111.324 15.5672 110.933 15.2187C110.541 14.8703 110.345 14.3977 110.345 13.8057C110.345 13.2138 110.541 12.6982 110.933 12.3258C111.324 11.9535 111.83 11.7673 112.446 11.7673C113.062 11.7673 113.563 11.9535 113.954 12.3258C114.346 12.6982 114.542 13.1899 114.542 13.8057C114.542 14.4215 114.346 14.8703 113.954 15.2187ZM111.09 4.30593C111.439 3.97654 111.887 3.81423 112.441 3.81423C112.995 3.81423 113.444 3.97654 113.792 4.30593C114.141 4.63532 114.317 5.09837 114.317 5.69032C114.317 6.28227 114.141 6.77874 113.792 7.10813C113.444 7.43274 112.99 7.59982 112.441 7.59982C111.892 7.59982 111.439 7.43752 111.09 7.10813C110.742 6.77874 110.565 6.30614 110.565 5.69032C110.565 5.07451 110.742 4.63532 111.09 4.30593ZM118.852 12.4691C118.671 12.0012 118.437 11.5907 118.151 11.2279C117.864 10.8651 117.53 10.5596 117.148 10.3018C116.766 10.0488 116.384 9.84827 116.002 9.70028C116.747 9.31838 117.334 8.75985 117.769 8.02946C118.203 7.29908 118.423 6.43503 118.423 5.43731C118.423 4.56849 118.27 3.79036 117.964 3.11249C117.783 2.71627 117.563 2.35346 117.301 2.03362C117.119 1.80925 116.914 1.59921 116.69 1.41303C116.193 0.997716 115.616 0.663553 114.957 0.429638C114.9 0.40577 114.842 0.386674 114.78 0.367579C114.05 0.124118 113.272 0 112.441 0C111.61 0 110.837 0.124118 110.121 0.367579C109.4 0.611041 108.761 0.959526 108.212 1.41781C107.663 1.87609 107.228 2.44416 106.908 3.12204C106.588 3.79991 106.431 4.57326 106.431 5.44686C106.431 6.44457 106.66 7.30863 107.114 8.03901C107.567 8.7694 108.169 9.32793 108.909 9.70983C108.508 9.85781 108.111 10.0583 107.729 10.3113C107.347 10.5643 107.013 10.8746 106.727 11.2374C106.44 11.6002 106.207 12.0108 106.025 12.4786C105.844 12.9464 105.753 13.4668 105.753 14.0396C105.753 14.9085 105.93 15.6866 106.278 16.3597C106.627 17.0375 107.104 17.6152 107.71 18.0973C108.312 18.5747 109.018 18.9327 109.825 19.1762C110.632 19.4197 111.501 19.5438 112.436 19.5438C113.315 19.5438 114.15 19.4292 114.938 19.2001C114.966 19.1905 115 19.181 115.028 19.1762C115.845 18.9327 116.556 18.5747 117.162 18.0973C117.296 17.9875 117.425 17.8777 117.549 17.7584C117.974 17.3574 118.322 16.8896 118.594 16.3597C118.943 15.6818 119.12 14.9085 119.12 14.0396C119.12 13.4668 119.029 12.9464 118.848 12.4786" fill="#53859A"/>
<path d="M107.39 23.062C107.047 23.062 106.779 22.9904 106.588 22.8472C106.397 22.704 106.302 22.4701 106.302 22.1455V19.1905H106.985V22.1455C106.985 22.2648 107.023 22.3412 107.104 22.3746C107.185 22.4128 107.281 22.4271 107.395 22.4271H107.615V23.0572H107.386L107.39 23.062Z" fill="#53859A"/>
<path d="M108.713 22.4319H107.515V23.062H108.713V22.4319Z" fill="#53859A"/>
<path d="M109.811 22.4319H108.613V23.062H109.811V22.4319Z" fill="#53859A"/>
<path d="M110.909 22.4319H109.711V23.062H110.909V22.4319Z" fill="#53859A"/>
<path d="M110.751 20.5893L112.121 20.2503L112.202 20.5702L110.828 20.8996L110.756 20.594L110.751 20.5893ZM110.613 20.0641L111.983 19.7252L112.064 20.0451L110.689 20.3744L110.613 20.0689V20.0641Z" fill="#53859A"/>
<path d="M112.007 22.4319H110.809V23.062H112.007V22.4319Z" fill="#53859A"/>
<path d="M113.105 22.4319H111.906V23.062H113.105V22.4319Z" fill="#53859A"/>
<path d="M114.203 22.4319H113.004V23.062H114.203V22.4319Z" fill="#53859A"/>
<path d="M115.301 22.4319H114.102V23.062H115.301V22.4319Z" fill="#53859A"/>
<path d="M116.399 22.4319H115.2V23.062H116.399V22.4319Z" fill="#53859A"/>
<path d="M117.497 22.4319H116.298V23.062H117.497V22.4319Z" fill="#53859A"/>
<path d="M119.144 21.3912C119.058 21.3912 118.986 21.4103 118.938 21.4533C118.886 21.4963 118.862 21.5583 118.862 21.6395V22.0882C118.862 22.1503 118.876 22.2076 118.905 22.2458C118.933 22.2887 118.972 22.3221 119.019 22.3508C119.067 22.3794 119.12 22.3985 119.182 22.4081C119.244 22.4176 119.306 22.4272 119.368 22.4272H119.616V21.7541C119.616 21.6013 119.583 21.501 119.511 21.4533C119.439 21.4056 119.349 21.3817 119.229 21.3817H119.144V21.3912ZM119.253 20.7134C119.607 20.7134 119.869 20.7945 120.041 20.9521C120.213 21.1096 120.299 21.3578 120.299 21.6968V23.0621H119.382C119.196 23.0621 119.029 23.043 118.886 23.0096C118.738 22.9761 118.614 22.9189 118.509 22.8425C118.299 22.9857 118.017 23.0573 117.654 23.0573H117.396V22.4272H117.668C117.73 22.4272 117.797 22.4224 117.855 22.4081C117.917 22.3985 117.969 22.3746 118.017 22.3508C118.065 22.3221 118.103 22.2887 118.131 22.2458C118.16 22.2028 118.174 22.1503 118.174 22.0882V21.6156C118.174 21.3483 118.256 21.1287 118.423 20.9616C118.59 20.7945 118.819 20.7134 119.105 20.7134H119.249H119.253Z" fill="#53859A"/>
<path d="M122.065 23.0621C121.721 23.0621 121.454 22.9905 121.263 22.8473C121.072 22.7041 120.977 22.4702 120.977 22.1455V19.1906H121.659V22.1455C121.659 22.2649 121.697 22.3413 121.779 22.3747C121.86 22.4129 121.955 22.4272 122.07 22.4272H122.289V23.0573H122.06L122.065 23.0621Z" fill="#53859A"/>
<path d="M123.392 22.4319H122.194V23.062H123.392V22.4319Z" fill="#53859A"/>
<path d="M124.49 22.4319H123.292V23.062H124.49V22.4319Z" fill="#53859A"/>
<path d="M125.588 22.4319H124.39V23.062H125.588V22.4319Z" fill="#53859A"/>
<path d="M126.686 22.4319H125.488V23.062H126.686V22.4319Z" fill="#53859A"/>
<path d="M128.462 21.2815C128.3 21.2815 128.156 21.3388 128.042 21.4533C127.922 21.5679 127.865 21.7302 127.865 21.9355C127.865 22.0023 127.879 22.0835 127.913 22.179C127.946 22.2697 127.994 22.3556 128.056 22.432H129.24V23.0621H126.581V22.432H127.288C127.259 22.3365 127.235 22.2458 127.221 22.1551C127.206 22.0644 127.197 21.988 127.197 21.9212C127.197 21.7255 127.225 21.5488 127.288 21.3913C127.35 21.2338 127.431 21.1049 127.54 20.9998C127.65 20.8948 127.774 20.8137 127.918 20.7612C128.061 20.7039 128.218 20.68 128.385 20.68C128.529 20.68 128.658 20.6943 128.772 20.7277C128.887 20.7564 128.997 20.8041 129.106 20.8709V21.5202C129.001 21.4343 128.896 21.3722 128.791 21.3388C128.686 21.3054 128.576 21.2863 128.457 21.2863" fill="#53859A"/>
<path d="M106.736 24.5611H107.238V25.8166H107.61V26.2797H107.238V26.5613C107.238 26.7761 107.176 26.9289 107.052 27.0291C106.927 27.1294 106.765 27.1771 106.565 27.1771C106.503 27.1771 106.44 27.1724 106.378 27.158C106.321 27.1437 106.269 27.1294 106.221 27.1151V26.695C106.269 26.7093 106.316 26.7236 106.364 26.7379C106.412 26.7475 106.455 26.7523 106.493 26.7523C106.569 26.7523 106.627 26.7332 106.67 26.695C106.713 26.6568 106.736 26.5852 106.736 26.4802V24.5563V24.5611Z" fill="#53859A"/>
<path d="M108.422 25.8165H107.538V26.2796H108.422V25.8165Z" fill="#53859A"/>
<path d="M109.228 25.8165H108.345V26.2796H109.228V25.8165Z" fill="#53859A"/>
<path d="M110.035 25.8165H109.152V26.2796H110.035V25.8165Z" fill="#53859A"/>
<path d="M110.842 25.8165H109.959V26.2796H110.842V25.8165Z" fill="#53859A"/>
<path d="M111.649 25.8165H110.766V26.2796H111.649V25.8165Z" fill="#53859A"/>
<path d="M112.856 25.0527C112.794 25.0527 112.742 25.067 112.704 25.1004C112.666 25.1291 112.646 25.1768 112.646 25.2389V25.5682C112.646 25.616 112.656 25.6542 112.68 25.6828C112.699 25.7115 112.728 25.7401 112.766 25.7592C112.799 25.7783 112.842 25.7926 112.885 25.8022C112.928 25.8117 112.976 25.8165 113.024 25.8165H113.205V25.3248C113.205 25.215 113.181 25.1434 113.129 25.1052C113.076 25.0718 113.009 25.0527 112.923 25.0527H112.861H112.856ZM112.938 24.561C113.195 24.561 113.391 24.6183 113.515 24.7328C113.644 24.8474 113.706 25.0288 113.706 25.277V25.8117H114.117V26.2748H113.033C112.895 26.2748 112.775 26.2604 112.666 26.2366C112.56 26.2127 112.465 26.1697 112.389 26.1172C112.236 26.2222 112.026 26.2748 111.763 26.2748H111.577V25.8117H111.778C111.825 25.8117 111.873 25.8117 111.916 25.7974C111.959 25.7831 112.002 25.7735 112.035 25.7544C112.069 25.7353 112.097 25.7067 112.121 25.678C112.14 25.6494 112.155 25.6064 112.155 25.5635V25.2198C112.155 25.024 112.217 24.8665 112.341 24.7424C112.465 24.623 112.632 24.561 112.842 24.561H112.947H112.938Z" fill="#53859A"/>
<path d="M114.924 25.8165H114.04V26.2796H114.924V25.8165Z" fill="#53859A"/>
<path d="M115.73 25.8165H114.847V26.2796H115.73V25.8165Z" fill="#53859A"/>
<path d="M116.537 25.8165H115.654V26.2796H116.537V25.8165Z" fill="#53859A"/>
<path d="M117.344 25.8165H116.461V26.2796H117.344V25.8165Z" fill="#53859A"/>
<path d="M118.155 25.8165H117.272V26.2796H118.155V25.8165Z" fill="#53859A"/>
<path d="M118.962 25.8165H118.079V26.2796H118.962V25.8165Z" fill="#53859A"/>
<path d="M119.769 25.8165H118.886V26.2796H119.769V25.8165Z" fill="#53859A"/>
<path d="M120.915 24.2507C120.829 24.2507 120.762 24.2221 120.7 24.1648C120.642 24.1075 120.614 24.0359 120.614 23.9595C120.614 23.8736 120.642 23.802 120.7 23.7447C120.757 23.6874 120.829 23.6588 120.915 23.6588C121 23.6588 121.067 23.6874 121.125 23.7447C121.187 23.802 121.215 23.8736 121.215 23.9595C121.215 24.0407 121.187 24.1075 121.125 24.1648C121.063 24.2221 120.996 24.2507 120.915 24.2507ZM120.16 24.2507C120.074 24.2507 120.008 24.2221 119.945 24.1648C119.888 24.1075 119.86 24.0359 119.86 23.9595C119.86 23.8736 119.888 23.802 119.945 23.7447C120.003 23.6874 120.074 23.6588 120.16 23.6588C120.246 23.6588 120.313 23.6874 120.37 23.7447C120.432 23.802 120.461 23.8736 120.461 23.9595C120.461 24.0407 120.432 24.1075 120.37 24.1648C120.308 24.2221 120.241 24.2507 120.16 24.2507ZM121.191 26.2748C121.053 26.2748 120.938 26.2605 120.838 26.2318C120.738 26.2032 120.647 26.1698 120.561 26.1316C120.504 26.1793 120.432 26.2127 120.342 26.2414C120.251 26.2653 120.156 26.2796 120.046 26.2796H119.692V25.8165H120.022C120.213 25.8165 120.308 25.7163 120.308 25.5205V24.561H120.81V25.554C120.81 25.5969 120.81 25.6351 120.795 25.6638C120.786 25.6924 120.776 25.721 120.771 25.7449C120.814 25.7688 120.867 25.7831 120.929 25.7974C120.991 25.8117 121.058 25.8165 121.125 25.8165H121.435V26.2796H121.191V26.2748Z" fill="#53859A"/>
<path d="M122.242 25.8165H121.358V26.2796H122.242V25.8165Z" fill="#53859A"/>
<path d="M124.619 26.2747C124.481 26.2747 124.366 26.2604 124.266 26.2317C124.166 26.2031 124.075 26.1697 123.989 26.1315C123.932 26.1792 123.86 26.2126 123.769 26.2413C123.679 26.2651 123.583 26.2795 123.473 26.2795C123.259 26.2795 123.044 26.246 122.824 26.184C122.762 26.2174 122.686 26.2413 122.605 26.2556C122.523 26.2699 122.433 26.2795 122.337 26.2795H122.17V25.8164H122.332C122.418 25.8164 122.485 25.8021 122.547 25.7782C122.605 25.7543 122.633 25.6971 122.633 25.6111V24.5657H123.134V25.6111C123.134 25.6732 123.134 25.7257 123.12 25.7782C123.163 25.7973 123.216 25.8116 123.273 25.826C123.33 25.8355 123.387 25.8403 123.445 25.8403C123.636 25.8403 123.731 25.74 123.731 25.5443V24.5657H124.237V25.5777C124.237 25.6207 124.237 25.6589 124.223 25.6875C124.213 25.7162 124.209 25.7448 124.199 25.7687C124.242 25.7925 124.294 25.8069 124.356 25.8212C124.419 25.8355 124.485 25.8403 124.552 25.8403C124.648 25.8403 124.719 25.8116 124.767 25.7543C124.815 25.6971 124.834 25.6207 124.834 25.5252V24.5657H125.335V25.5586C125.335 25.6016 125.335 25.6398 125.321 25.6684C125.311 25.6971 125.306 25.7257 125.297 25.7496C125.34 25.7734 125.392 25.7878 125.454 25.8021C125.517 25.8164 125.583 25.8212 125.65 25.8212H125.96V26.2842H125.717C125.579 26.2842 125.464 26.2699 125.364 26.2413C125.264 26.2126 125.173 26.1792 125.087 26.141C125.034 26.184 124.972 26.2174 124.886 26.2413C124.805 26.2651 124.715 26.2795 124.619 26.289" fill="#53859A"/>
<path d="M126.595 24.2507C126.51 24.2507 126.443 24.222 126.381 24.1647C126.323 24.1075 126.295 24.0358 126.295 23.9595C126.295 23.8735 126.323 23.8019 126.381 23.7446C126.438 23.6874 126.51 23.6587 126.595 23.6587C126.681 23.6587 126.748 23.6874 126.805 23.7446C126.868 23.8019 126.896 23.8735 126.896 23.9595C126.896 24.0406 126.868 24.1075 126.805 24.1647C126.743 24.222 126.677 24.2507 126.595 24.2507ZM125.889 26.2747V25.8117H126.051C126.137 25.8117 126.204 25.7974 126.266 25.7735C126.323 25.7496 126.352 25.6923 126.352 25.6064V24.561H126.853V25.6064C126.853 25.8403 126.782 26.0122 126.643 26.1172C126.505 26.2222 126.309 26.2747 126.051 26.2747H125.884H125.889Z" fill="#53859A"/>
<path d="M128.686 25.0384C128.662 25.0336 128.624 25.0241 128.577 25.0145C128.529 25.005 128.467 25.0002 128.4 25.0002C128.223 25.0002 128.094 25.0384 128.013 25.11C127.927 25.1864 127.889 25.2819 127.889 25.4012C127.889 25.5301 127.932 25.6303 128.018 25.7019C128.104 25.7735 128.223 25.8117 128.371 25.8117H128.691V25.0336L128.686 25.0384ZM128.686 26.2748H128.371C128.247 26.2748 128.123 26.2557 128.008 26.2223C127.894 26.1889 127.789 26.1364 127.698 26.0647C127.607 25.9931 127.536 25.9024 127.483 25.7926C127.431 25.6828 127.402 25.554 127.402 25.4012C127.402 25.2819 127.426 25.1721 127.469 25.067C127.512 24.9668 127.574 24.8761 127.66 24.7997C127.746 24.7233 127.851 24.6613 127.975 24.6183C128.099 24.5753 128.242 24.5515 128.405 24.5515C128.448 24.5515 128.505 24.5515 128.577 24.5658C128.648 24.5753 128.72 24.5849 128.796 24.5992C128.872 24.6135 128.944 24.6278 129.016 24.6469C129.087 24.666 129.149 24.6851 129.197 24.7042V26.3703C129.197 26.5278 129.168 26.6615 129.106 26.7665C129.044 26.8715 128.973 26.9574 128.877 27.0195C128.787 27.0816 128.682 27.1245 128.572 27.1532C128.462 27.1818 128.352 27.1914 128.247 27.1914C128.013 27.1914 127.798 27.1436 127.607 27.0529V26.5899C127.722 26.6519 127.827 26.6997 127.927 26.7283C128.023 26.7569 128.133 26.7713 128.247 26.7713C128.362 26.7713 128.476 26.7378 128.562 26.671C128.648 26.6042 128.691 26.4992 128.691 26.3607V26.2796L128.686 26.2748Z" fill="#53859A"/>
<path d="M37.9228 22.6514C37.6555 22.6514 37.455 22.4605 37.455 22.1979C37.455 21.9354 37.6603 21.754 37.9228 21.754C38.1854 21.754 38.3859 21.9497 38.3859 22.1979C38.3859 22.4462 38.1854 22.6514 37.9228 22.6514Z" fill="#727274"/>
<path d="M41.0162 26.5707H38.2427C37.4454 26.5707 37.0063 26.4418 36.6148 26.0981C36.2329 25.7544 36.0992 25.1815 36.0992 24.7901V23.3197H36.8249V24.7089C36.8249 25.1147 36.9347 25.4059 37.1543 25.5777C37.3691 25.7544 37.7128 25.8451 38.1472 25.8451H40.2811V22.6753H41.0162V26.5707Z" fill="#727274"/>
<path d="M39.245 22.6514C38.9825 22.6514 38.7772 22.4605 38.7772 22.1979C38.7772 21.9354 38.9825 21.754 39.245 21.754C39.5076 21.754 39.7176 21.9497 39.7176 22.1979C39.7176 22.4462 39.5124 22.6514 39.245 22.6514Z" fill="#727274"/>
<path d="M42.9925 20.8422H42.2669V26.5707H42.9925V20.8422Z" fill="#727274"/>
<path d="M44.1667 28.0792C44.0139 28.0792 43.8611 28.0601 43.6988 28.0172L43.6129 27.9933L43.8039 27.2915L43.8898 27.3154C44.0139 27.3488 44.0616 27.3536 44.1476 27.3536C44.4674 27.3536 44.5772 27.239 44.5772 26.5993V22.6753H45.3028V26.5993C45.3028 27.2343 45.1835 28.0792 44.1667 28.0792Z" fill="#727274"/>
<path d="M57.3374 28.0028C57.0653 28.0028 56.8696 27.8167 56.8696 27.5589C56.8696 27.3011 57.0749 27.1054 57.3374 27.1054C57.6 27.1054 57.8005 27.3011 57.8005 27.5589C57.8005 27.8167 57.6048 28.0028 57.3374 28.0028Z" fill="#727274"/>
<path d="M58.6598 28.0028C58.3877 28.0028 58.192 27.8167 58.192 27.5589C58.192 27.3011 58.3973 27.1054 58.6598 27.1054C58.9224 27.1054 59.1324 27.3011 59.1324 27.5589C59.1324 27.8167 58.9367 28.0028 58.6598 28.0028Z" fill="#727274"/>
<path d="M65.3384 26.6423C64.7512 26.6423 64.2738 26.4179 63.9779 26.0121C63.6867 26.3702 63.257 26.5754 62.7701 26.5754H46.5727V20.8469H47.2983V25.8498H57.686V22.6801H58.4116V25.8498H61.0706V23.0238H61.7962V25.8498H62.7653C63.0183 25.8498 63.6007 25.7687 63.6007 25.0097V23.0238H64.3263V25.0097C64.3454 25.5586 64.7607 25.9214 65.3336 25.9214C65.9064 25.9214 66.2645 25.573 66.2645 24.9715V22.2934H66.9901V24.8808C66.9901 25.0908 66.9758 25.2627 66.9423 25.4154C67.1381 25.7018 67.4675 25.8546 68.0403 25.8546H68.8471V20.8517H69.5727V25.8546H71.3151V20.8517H72.0407V26.5802L67.8112 26.5659C67.2956 26.5277 66.9424 26.3511 66.7084 26.0312C66.4363 26.437 65.9733 26.6471 65.3384 26.6471" fill="#727274"/>
<path d="M53.4994 9.50925H52.621V17.5483H53.8956V9.9007C53.8956 9.69543 53.7333 9.50925 53.4994 9.50925Z" fill="#727274"/>
<path d="M31.8457 10.5118H30.5568V11.4618H31.8409C31.8409 11.4618 31.8409 10.6884 31.8409 10.5118" fill="#727274"/>
<path d="M65.4673 18.2883H64.1832V19.2383H65.4673V18.2883Z" fill="#727274"/>
<path d="M18.2453 19.2382H19.5294C19.5294 19.2382 19.5294 18.4649 19.5294 18.2883H18.2453V19.2382Z" fill="#727274"/>
<path d="M6.20114 19.2382H7.48527C7.48527 19.2382 7.48527 18.4649 7.48527 18.2883H6.20114V19.2382Z" fill="#727274"/>
<path d="M7.96259 19.2382H9.24673C9.24673 19.2382 9.24673 18.4649 9.24673 18.2883H7.96259V19.2382Z" fill="#727274"/>
<path d="M34.5382 19.2382H35.8223C35.8223 19.2382 35.8223 18.4649 35.8223 18.2883H34.5382V19.2382Z" fill="#727274"/>
<path d="M36.2997 19.2382H37.5839C37.5839 19.2382 37.5839 18.4649 37.5839 18.2883H36.2997V19.2382Z" fill="#727274"/>
<path d="M70.6087 16.5076C69.5489 16.5076 68.8901 15.9157 68.8901 14.8941C68.8901 13.8725 69.5537 13.2424 70.6182 13.2424C71.0813 13.2424 71.4107 13.3379 71.8212 13.6052V12.512C71.3248 12.2972 70.9524 12.2113 70.4368 12.2113C68.7421 12.2113 67.5821 13.3474 67.5821 15.0039C67.5821 15.5959 67.7253 16.1019 67.9879 16.5076H66.489C65.6726 16.5076 65.4053 16.2403 65.4053 15.4336V12.3545H64.1307V15.4336C64.1307 16.2403 63.8634 16.5076 63.0471 16.5076H61.3572V15.0039C61.3572 13.3522 60.1971 12.2113 58.5024 12.2113C57.9869 12.2113 57.6098 12.2972 57.1181 12.512V13.6052C57.5238 13.3379 57.858 13.2424 58.321 13.2424C59.3856 13.2424 60.0491 13.8773 60.0491 14.8941V16.5076H56.698V17.6104H63.1568C63.8825 17.6104 64.4076 17.4863 64.7704 17.238C65.1332 17.4863 65.6583 17.6104 66.3839 17.6104H72.2461V16.5076H70.6087Z" fill="#727274"/>
<path d="M50.43 9.50936H49.5516V16.5077H47.5991V9.89603C47.5991 9.69076 47.4368 9.50458 47.2029 9.50458H46.3245V16.5029H44.3959V14.9992C44.3959 13.3475 43.2359 12.2065 41.5412 12.2065C41.0257 12.2065 40.6485 12.2925 40.1568 12.5073V9.89126C40.1568 9.68599 39.9945 9.49981 39.7606 9.49981H38.8823V16.4981H37.7222C36.9059 16.4981 36.6386 16.2308 36.6386 15.424V12.345H35.364V15.424C35.364 16.2308 35.0967 16.4981 34.2803 16.4981H33.1776V12.345C32.5284 12.345 31.9842 12.2161 31.0724 12.2161C29.3777 12.2161 28.2941 13.2186 28.2941 14.9037C28.2941 15.5911 28.4468 16.1115 28.6998 16.5029H27.0004C25.9358 16.5029 25.2818 15.911 25.2818 14.8894V12.3497H23.9738V14.9944C23.9738 16.6175 25.0383 17.6009 26.7235 17.6009H34.3901C35.1157 17.6009 35.6409 17.4768 36.0037 17.2285C36.3569 17.4672 36.8629 17.5913 37.5551 17.5961H50.8262V9.88648C50.8262 9.68121 50.6591 9.49504 50.43 9.49504M31.9078 13.3045V16.4504C31.6548 16.5459 29.5925 16.9373 29.5925 14.8942C29.5925 12.851 31.6166 13.2472 31.9078 13.3045ZM41.3598 13.2281C42.4244 13.2281 43.0879 13.863 43.0879 14.8798V16.4934H40.1568V13.5909C40.5626 13.3236 40.8968 13.2281 41.3598 13.2281Z" fill="#727274"/>
<path d="M18.5127 12.2113C17.9971 12.2113 17.6199 12.2973 17.1283 12.5121V13.6053C17.534 13.3379 17.8682 13.2425 18.3312 13.2425C19.3958 13.2425 20.0593 13.8774 20.0593 14.8942V16.5077H16.7893C16.0255 16.5077 15.7439 16.2738 15.7105 15.5864V12.3593C15.0612 12.3593 14.517 12.2304 13.6052 12.2304C11.9296 12.2304 10.8508 13.2138 10.8269 14.8703V15.4432C10.8269 16.2499 10.5596 16.5173 9.74325 16.5173H9.40909C8.59278 16.5173 8.32544 16.2499 8.32544 15.4432V12.3641C8.187 12.3641 7.93399 12.3641 7.68576 12.3641C7.43752 12.3641 7.18452 12.3641 7.05085 12.3641V15.4432C7.05085 16.2499 6.78351 16.5173 5.9672 16.5173H5.56621C4.74989 16.5173 4.48257 16.2499 4.48257 15.4432V9.9056C4.48257 9.70033 4.31548 9.51415 4.08634 9.51415H3.20797V18.064C2.89767 18.1165 2.64944 18.1403 2.35824 18.1403C1.54193 18.1403 1.2746 17.873 1.2746 17.0662V13.9872C0.954758 13.9872 0 13.9872 0 13.9872V17.1187C0 17.9876 0.128891 18.4124 0.491697 18.7561C0.854502 19.076 1.42258 19.2383 2.25322 19.2383C2.93586 19.2383 3.53736 19.1762 4.48257 18.9948V17.515C4.72126 17.5723 4.99335 17.6057 5.30842 17.6152H6.077C6.80261 17.6152 7.32773 17.4911 7.69053 17.2429C8.02947 17.472 8.51161 17.5961 9.15607 17.6104H9.91511C10.7076 17.6057 11.2565 17.4434 11.6098 17.1331C11.6432 17.0997 11.6766 17.0662 11.71 17.0328C12.7794 17.8587 14.56 17.6152 15.4622 17.4386C15.7868 17.5579 16.1878 17.6152 16.6891 17.6152H21.3721V15.0087C21.3721 13.357 20.2121 12.2161 18.5174 12.2161M12.1301 14.9133C12.1301 12.851 14.1542 13.2663 14.4454 13.3236V14.9897V15.4957C14.4454 15.5816 14.4454 15.658 14.4454 15.7391V16.4743C14.1924 16.5698 12.1301 16.9612 12.1301 14.918" fill="#727274"/>
<path d="M81.5167 15.5339C81.5692 15.5721 81.6218 15.6628 81.5883 15.7678C81.5549 15.8728 81.4642 15.9015 81.3974 15.9015H80.1419C79.9891 15.9015 79.8889 15.8824 79.8125 15.8251C79.7313 15.7678 79.6788 15.6771 79.6311 15.5148C79.6311 15.5148 79.2778 14.4264 79.254 14.35C79.2253 14.2641 79.2587 14.1734 79.3208 14.1257C79.3924 14.0684 79.4926 14.0636 79.5642 14.1161C79.6311 14.1638 81.5167 15.5387 81.5167 15.5387" fill="#53859A"/>
<path d="M80.5286 11.438C80.476 11.4571 80.4474 11.4953 80.4474 11.543C80.4474 11.5908 80.4713 11.6194 80.4904 11.6337C80.5142 11.6481 81.1014 12.0777 81.1635 12.1207C81.2255 12.1636 81.2924 12.1636 81.3353 12.1493C81.3831 12.135 82.8104 11.6672 82.8104 11.6672V14.3596C82.8104 14.3596 79.9557 12.283 79.7409 12.1302C79.526 11.9775 79.2683 11.8486 78.8673 11.9775C78.4472 12.1111 77.3492 12.4692 77.1726 12.5264C76.996 12.5837 76.9148 12.7508 76.9721 12.9179C77.0151 13.0563 78.113 16.4171 78.2037 16.7083C78.4138 17.3575 78.767 17.6153 79.4449 17.6153C79.6168 17.6153 83.6267 17.6153 83.6267 17.6153C83.6888 17.6153 83.7365 17.5675 83.7461 17.5102V16.7942C83.7461 16.7321 83.6888 16.6796 83.6267 16.6796H79.7361C79.2349 16.6796 79.1442 16.5555 79.0296 16.2166C78.958 15.9826 78.0701 13.2473 78.0653 13.2377C78.0653 13.2282 78.0653 13.2139 78.0796 13.2091C78.0939 13.2043 78.6047 13.0372 78.8768 12.9465C79.1489 12.8558 79.3112 12.98 79.4735 13.0993C79.6406 13.2186 83.2209 15.8203 83.3594 15.9206C83.4978 16.0208 83.7413 15.9445 83.7365 15.7153C83.7365 15.4766 83.7365 10.3926 83.7365 10.3926C83.7365 10.3926 80.5763 11.4189 80.519 11.438" fill="#53859A"/>
<path d="M82.9202 3.72359C82.8533 3.72359 82.7578 3.6854 82.7244 3.58038C82.691 3.47535 82.7483 3.39897 82.8008 3.35601L83.8176 2.61608C83.937 2.52537 84.0324 2.48718 84.1279 2.48718C84.2282 2.48718 84.3236 2.53015 84.4621 2.6304C84.4621 2.6304 85.3882 3.3035 85.455 3.35124C85.5266 3.40375 85.5553 3.49922 85.5314 3.57083C85.5075 3.65676 85.4264 3.72359 85.3405 3.72359C85.2593 3.72359 82.9249 3.72359 82.9249 3.72359" fill="#53859A"/>
<path d="M86.1281 6.45894C86.1615 6.4112 86.1615 6.36347 86.1281 6.33005C86.0995 6.29186 86.0661 6.28231 86.0374 6.28231C86.0088 6.28231 85.2784 6.28231 85.202 6.28231C85.1256 6.28231 85.0731 6.3205 85.0445 6.36347C85.0159 6.40166 84.1327 7.61897 84.1327 7.61897L82.5478 5.44213C82.5478 5.44213 86.0804 5.44213 86.343 5.44213C86.6103 5.44213 86.8919 5.38962 87.1402 5.05546C87.4027 4.69743 88.0806 3.76654 88.1856 3.61856C88.2954 3.4658 88.262 3.28917 88.1188 3.18414C87.9995 3.09822 85.1448 1.0264 84.8965 0.845002C84.3475 0.444006 83.9036 0.444006 83.3594 0.840228C83.2209 0.940477 79.9795 3.29871 79.9795 3.29871C79.9318 3.3369 79.9175 3.40374 79.9461 3.45147L80.3662 4.0291C80.4044 4.08161 80.476 4.08638 80.5285 4.05297L83.6744 1.76634C84.0802 1.47514 84.2282 1.5181 84.5194 1.72815C84.7151 1.87136 87.0399 3.56604 87.0495 3.57082C87.059 3.57559 87.0638 3.58991 87.0542 3.60423C87.0447 3.61856 86.7296 4.05297 86.5626 4.28211C86.3955 4.51602 86.195 4.51125 85.9897 4.51125C85.7844 4.51125 81.3544 4.51125 81.1873 4.51125C81.0202 4.51125 80.8674 4.71652 81.0011 4.89792C81.1396 5.08887 84.1327 9.20385 84.1327 9.20385C84.1327 9.20385 86.0852 6.51623 86.1234 6.46372" fill="#53859A"/>
<path d="M77.9269 9.11796C77.9078 9.18002 77.841 9.26117 77.7264 9.26117C77.6166 9.26117 77.5593 9.18479 77.5402 9.11796L77.1535 7.92452C77.1058 7.7813 77.0963 7.67628 77.1249 7.58558C77.1583 7.4901 77.2252 7.41372 77.3636 7.31347C77.3636 7.31347 78.2945 6.64037 78.3565 6.59264C78.4282 6.54013 78.5284 6.5449 78.5905 6.58786C78.6668 6.64038 78.7002 6.73108 78.6764 6.817C78.6525 6.89816 77.9269 9.11318 77.9269 9.11318" fill="#53859A"/>
<path d="M81.5167 6.91717C81.4833 6.86943 81.4403 6.85511 81.3926 6.8742C81.3496 6.88853 81.3305 6.91717 81.321 6.94581C81.3115 6.96968 81.0871 7.66665 81.0632 7.73825C81.0393 7.80986 81.0632 7.87192 81.0918 7.91011C81.1205 7.9483 82.0036 9.16561 82.0036 9.16561L79.4449 10.001C79.4449 10.001 80.5381 6.64506 80.6192 6.39205C80.7004 6.13905 80.7386 5.85262 80.4951 5.51368C80.2373 5.15565 79.5595 4.22477 79.4497 4.07201C79.3399 3.92402 79.1585 3.89538 79.0153 4.0004C78.8959 4.08633 76.0412 6.16291 75.793 6.34432C75.2392 6.74531 75.1056 7.16063 75.3156 7.80509C75.3681 7.9674 76.6093 11.7816 76.6093 11.7816C76.6284 11.8389 76.6904 11.8723 76.743 11.8628L77.4208 11.6432C77.4829 11.6241 77.5115 11.5573 77.4924 11.4952L76.2894 7.79554C76.1415 7.31816 76.2274 7.19405 76.5138 6.97923C76.7143 6.83601 79.0391 5.1461 79.0487 5.14133C79.0535 5.13656 79.0726 5.13178 79.0821 5.14133C79.0917 5.15088 79.4067 5.59006 79.5786 5.8192C79.7456 6.04834 79.6836 6.23929 79.6215 6.43502C79.5595 6.63074 78.1894 10.8412 78.1369 11.0035C78.0844 11.1658 78.2324 11.3711 78.4472 11.2995C78.6716 11.2279 83.5121 9.65253 83.5121 9.65253C83.5121 9.65253 81.5597 6.96491 81.5215 6.91239" fill="#53859A"/>
<path d="M88.725 14.1064C88.7776 14.0682 88.8778 14.0444 88.9685 14.1064C89.0592 14.1685 89.0592 14.2687 89.0401 14.3308L88.6535 15.5242C88.6105 15.6675 88.558 15.7582 88.4768 15.8154C88.3957 15.8727 88.2907 15.8966 88.1236 15.8918C88.1236 15.8918 86.9779 15.8918 86.8967 15.8918C86.806 15.8918 86.7296 15.8298 86.7058 15.7582C86.6723 15.6722 86.701 15.5768 86.7726 15.5242C86.8394 15.4765 88.725 14.1064 88.725 14.1064Z" fill="#53859A"/>
<path d="M84.5242 13.7772C84.5242 13.8344 84.5529 13.8726 84.5958 13.8869C84.6388 13.9013 84.6722 13.8869 84.696 13.8726C84.7199 13.8583 85.3071 13.4287 85.3692 13.3809C85.4312 13.3332 85.4503 13.2711 85.4503 13.2234C85.4503 13.1757 85.4503 11.6719 85.4503 11.6719L88.0138 12.5026C88.0138 12.5026 85.1543 14.5744 84.9443 14.7319C84.7295 14.8894 84.529 15.0947 84.529 15.5148C84.529 15.9588 84.529 17.1092 84.529 17.2954C84.529 17.4816 84.6627 17.6057 84.8393 17.6057C84.9873 17.6057 88.5151 17.6057 88.8206 17.6057C89.5032 17.6057 89.8565 17.3479 90.0665 16.7082C90.119 16.5459 91.3554 12.7317 91.3554 12.7317C91.3745 12.6744 91.3459 12.6124 91.2934 12.5885L90.6155 12.3689C90.5535 12.3498 90.4914 12.388 90.4723 12.4453L89.2741 16.1449C89.1166 16.6175 88.9686 16.6701 88.6105 16.6701C88.3671 16.6701 85.4885 16.6701 85.479 16.6701C85.4694 16.6701 85.4551 16.6605 85.4551 16.6462C85.4551 16.6319 85.4551 16.0924 85.4551 15.806C85.4551 15.5196 85.6174 15.405 85.7845 15.2809C85.9516 15.1615 89.5319 12.5551 89.6703 12.4548C89.804 12.3546 89.8088 12.1016 89.5939 12.03C89.3696 11.9583 84.529 10.3878 84.529 10.3878C84.529 10.3878 84.529 13.7103 84.529 13.7724" fill="#53859A"/>
<path d="M89.5939 6.80746C89.5748 6.7454 89.5843 6.64038 89.6703 6.57832C89.7562 6.51149 89.8517 6.54013 89.9042 6.57832L90.921 7.31825C91.0451 7.40418 91.1119 7.48534 91.1406 7.57604C91.1692 7.67151 91.1597 7.77653 91.1072 7.93884C91.1072 7.93884 90.7539 9.02726 90.7252 9.10364C90.6966 9.18957 90.6155 9.24208 90.5391 9.24685C90.4484 9.24685 90.3624 9.19434 90.3338 9.10841C90.3099 9.03203 89.5891 6.81224 89.5891 6.81224" fill="#53859A"/>
<path d="M87.9851 10.6981C88.0424 10.7172 88.0854 10.6981 88.1092 10.6646C88.1379 10.6264 88.1331 10.5883 88.1283 10.5644C88.1188 10.5405 87.8944 9.84355 87.8706 9.77195C87.8467 9.70034 87.7942 9.66215 87.7464 9.64783C87.6987 9.63351 86.2714 9.17045 86.2714 9.17045L87.8515 6.98884C87.8515 6.98884 88.9399 10.3448 89.0258 10.5978C89.1117 10.8508 89.2454 11.1038 89.6416 11.2327C90.0617 11.3712 91.1549 11.7292 91.3315 11.7865C91.5082 11.8438 91.6705 11.7578 91.723 11.5907C91.7659 11.4523 92.8591 8.09158 92.9546 7.80038C93.1647 7.15115 93.031 6.73583 92.482 6.33961C92.3436 6.23936 89.0974 3.8859 89.0974 3.8859C89.0497 3.85248 88.9781 3.86203 88.9399 3.90022L88.5198 4.47785C88.4816 4.53036 88.4959 4.60196 88.5484 4.64015L91.6943 6.92679C92.0953 7.22276 92.1001 7.38029 91.9903 7.71923C91.9139 7.94837 91.026 10.6837 91.0212 10.6933C91.0212 10.7028 91.0069 10.7124 90.9926 10.7076C90.9783 10.7076 90.4675 10.5357 90.1906 10.4498C89.9185 10.3639 89.8612 10.1682 89.7944 9.97244C89.7323 9.77672 88.3622 5.56626 88.3097 5.40396C88.2572 5.24165 88.0138 5.16049 87.8849 5.34667C87.7465 5.53762 84.7581 9.65738 84.7581 9.65738C84.7581 9.65738 87.9183 10.6837 87.9756 10.7028" fill="#53859A"/>
<path d="M91.6036 1.81889H91.7229C91.9139 1.81889 92.0428 1.73773 92.0428 1.55156C92.0428 1.38925 91.9282 1.29377 91.7182 1.29377C91.6895 1.29377 91.637 1.29377 91.6084 1.29377V1.81411L91.6036 1.81889ZM91.6036 2.52063H91.3601V1.1076C91.4461 1.09328 91.5988 1.08373 91.7134 1.08373C92.0857 1.08373 92.2862 1.24604 92.2862 1.54678C92.2862 1.75206 92.1717 1.90482 92.0046 1.96687L92.4295 2.5254H92.1383L91.7611 2.02416H91.5988V2.5254L91.6036 2.52063Z" fill="#727274"/>
<path d="M91.7659 0.763842C91.1788 0.763842 90.7014 1.24122 90.7014 1.82839C90.7014 2.41556 91.1788 2.89294 91.7659 2.89294C92.3531 2.89294 92.8305 2.41556 92.8305 1.82839C92.8305 1.24122 92.3531 0.763842 91.7659 0.763842ZM91.7659 3.10298C91.0642 3.10298 90.4914 2.53013 90.4914 1.82839C90.4914 1.12665 91.0642 0.553797 91.7659 0.553797C92.4677 0.553797 93.0406 1.12665 93.0406 1.82839C93.0406 2.53013 92.4677 3.10298 91.7659 3.10298Z" fill="#727274"/>
</svg>
