<svg width="34" height="34" viewBox="0 0 34 34" fill="none" xmlns="http://www.w3.org/2000/svg">
<path d="M7.14999 10.35C7.14999 8.84153 7.14999 8.08728 7.61862 7.61865C8.08725 7.15002 8.8415 7.15002 10.35 7.15002C11.8585 7.15002 12.6127 7.15002 13.0814 7.61865C13.55 8.08728 13.55 8.84153 13.55 10.35C13.55 11.8585 13.55 12.6128 13.0814 13.0814C12.6127 13.55 11.8585 13.55 10.35 13.55C8.8415 13.55 8.08725 13.55 7.61862 13.0814C7.14999 12.6128 7.14999 11.8585 7.14999 10.35Z" stroke="white" stroke-width="1.5"/>
<path d="M7.14996 23.15C7.14996 21.6415 7.14996 20.8873 7.61859 20.4186C8.08722 19.95 8.84147 19.95 10.35 19.95C11.8585 19.95 12.6127 19.95 13.0813 20.4186C13.55 20.8873 13.55 21.6415 13.55 23.15C13.55 24.6585 13.55 25.4127 13.0813 25.8814C12.6127 26.35 11.8585 26.35 10.35 26.35C8.84147 26.35 8.08722 26.35 7.61859 25.8814C7.14996 25.4127 7.14996 24.6585 7.14996 23.15Z" stroke="white" stroke-width="1.5"/>
<path d="M7.14996 16.75H13.55" stroke="white" stroke-width="1.5" stroke-linecap="round" stroke-linejoin="round"/>
<path d="M16.75 7.15002V12.4834" stroke="white" stroke-width="1.5" stroke-linecap="round" stroke-linejoin="round"/>
<path d="M19.95 10.35C19.95 8.84153 19.95 8.08728 20.4186 7.61865C20.8872 7.15002 21.6415 7.15002 23.15 7.15002C24.6584 7.15002 25.4127 7.15002 25.8814 7.61865C26.35 8.08728 26.35 8.84153 26.35 10.35C26.35 11.8585 26.35 12.6128 25.8814 13.0814C25.4127 13.55 24.6584 13.55 23.15 13.55C21.6415 13.55 20.8872 13.55 20.4186 13.0814C19.95 12.6128 19.95 11.8585 19.95 10.35Z" stroke="white" stroke-width="1.5"/>
<path d="M26.35 16.75H19.95C18.4415 16.75 17.6872 16.75 17.2186 17.2186C16.75 17.6873 16.75 18.4415 16.75 19.95M16.75 22.9038V25.8577M19.95 19.95V21.55C19.95 23.0928 20.7859 23.15 22.0833 23.15C22.6724 23.15 23.15 23.6275 23.15 24.2167M21.0166 26.35H19.95M23.15 19.95C24.6584 19.95 25.4127 19.95 25.8814 20.4193C26.35 20.8886 26.35 21.644 26.35 23.1546C26.35 24.6653 26.35 25.4206 25.8814 25.8899C25.5393 26.2325 25.0451 26.325 24.2166 26.35" stroke="white" stroke-width="1.5" stroke-linecap="round"/>
<path d="M11.9403 0.75C7.46534 0.85232 4.85155 1.27978 3.06566 3.06566C1.27978 4.85155 0.85232 7.46534 0.75 11.9403M21.5596 0.75C26.0346 0.85232 28.6484 1.27978 30.4343 3.06566C32.2202 4.85155 32.6478 7.46534 32.75 11.9403M21.5596 32.75C26.0346 32.6478 28.6484 32.2202 30.4343 30.4343C32.2202 28.6484 32.6478 26.0346 32.75 21.5596M11.9403 32.75C7.46534 32.6478 4.85155 32.2202 3.06566 30.4343C1.27978 28.6484 0.85232 26.0346 0.75 21.5596" stroke="white" stroke-width="1.5" stroke-linecap="round" stroke-linejoin="round"/>
</svg>
