<svg width="209" height="45" viewBox="0 0 209 45" fill="none" xmlns="http://www.w3.org/2000/svg">
<path d="M59.8875 9.67235C59.7131 9.67235 59.5556 9.56603 59.4965 9.41187C59.4374 9.25505 59.4852 9.07962 59.6146 8.96799C62.6752 6.38445 65.7302 3.80357 68.7909 1.21737C68.9062 1.12169 69.0525 1.06853 69.2044 1.06587H78.4341C78.586 1.06587 78.7351 1.11903 78.8476 1.21737C81.9054 3.80091 84.9632 6.38179 88.021 8.96533C88.1532 9.07697 88.1983 9.25239 88.1392 9.40921C88.0801 9.56603 87.9254 9.67235 87.7482 9.67235H69.1228C68.9934 9.67235 68.8753 9.59261 68.8302 9.47566C68.7852 9.35871 68.8218 9.22581 68.9174 9.14342C69.4941 8.65701 70.0708 8.16794 70.6531 7.67888C70.7685 7.58054 70.9175 7.52737 71.0723 7.52737H79.5987C79.7056 7.52737 79.8125 7.47156 79.8547 7.37321C79.8969 7.27487 79.8659 7.16057 79.7787 7.09413C78.2878 5.83425 76.7941 4.57704 75.3031 3.31451C75.1878 3.21616 75.0387 3.163 74.884 3.163H72.7432C72.5885 3.163 72.4394 3.21616 72.3241 3.31451C69.8739 5.38506 67.4209 7.45295 64.9707 9.5235C64.8554 9.61919 64.7091 9.67501 64.5572 9.67501H59.8791L59.8875 9.67235ZM0 2.9105V1.31838C0 1.18016 0.115336 1.07119 0.261616 1.07119H21.5735C21.6803 1.07119 21.7844 1.09777 21.8801 1.14561C22.8506 1.66391 23.8239 2.18222 24.7944 2.70318C24.8788 2.74836 24.9294 2.83076 24.9294 2.92379V4.74183C24.9294 4.8322 24.8788 4.91726 24.7944 4.96244C24.5722 5.07939 24.3471 5.199 24.1249 5.31595C23.9421 5.41164 23.9392 5.66148 24.1249 5.75717C24.35 5.87678 24.575 5.99639 24.7972 6.116C24.8816 6.16118 24.9323 6.24624 24.9323 6.33661V9.42782C24.9323 9.56603 24.8141 9.68032 24.6706 9.68032H19.8884C19.745 9.68032 19.6296 9.56869 19.6268 9.43048V7.59648C19.6268 7.50611 19.5762 7.42371 19.4946 7.37853C19.233 7.23766 18.9714 7.09944 18.7097 6.95857C18.6169 6.91073 18.51 6.88415 18.4031 6.88415H5.56988C5.42642 6.88415 5.30827 6.99578 5.31108 7.13134C5.31108 7.13134 5.31108 7.134 5.31108 7.13665V9.43048C5.31108 9.56869 5.19293 9.68298 5.04946 9.68298H0.264429C0.120962 9.68298 0.00562621 9.57135 0.00281314 9.43313V4.99168C0.00281314 4.85347 0.120962 4.74183 0.264429 4.73917H18.932C19.0389 4.73917 19.143 4.71259 19.2358 4.66475L19.489 4.53185C19.5734 4.48667 19.624 4.40427 19.624 4.31124V3.64675C19.624 3.55638 19.5734 3.47398 19.489 3.4288L19.1486 3.24806C19.0529 3.19756 18.9489 3.17098 18.8391 3.17098H0.264429C0.118149 3.16566 0.00281314 3.05403 0.00281314 2.91581L0 2.9105ZM120.971 1.06853C120.841 1.06853 120.723 1.14827 120.681 1.26522C120.639 1.38217 120.672 1.51241 120.768 1.59746C123.896 4.23948 127.024 6.88149 130.152 9.5235C130.265 9.61919 130.414 9.67501 130.566 9.67501H139.796C139.948 9.67501 140.097 9.62185 140.209 9.5235C143.337 6.88149 146.468 4.23948 149.594 1.59746C149.689 1.51507 149.726 1.38217 149.681 1.26522C149.639 1.14827 149.52 1.06853 149.391 1.06853H144.437C144.285 1.06853 144.136 1.12169 144.024 1.22003C141.593 3.27464 139.163 5.32658 136.729 7.37853C136.614 7.47687 136.465 7.53003 136.31 7.53003H134.051C133.897 7.53003 133.748 7.47687 133.632 7.37853C131.202 5.32393 128.771 3.27198 126.338 1.22003C126.223 1.12435 126.076 1.07119 125.924 1.06853H120.971ZM201.315 0.574147C201.441 0.510356 201.512 0.372145 201.483 0.236589C201.455 0.101033 201.332 0.00268848 201.185 3.05176e-05H195.672C195.573 3.05176e-05 195.475 0.0239522 195.385 0.0664795L184.304 5.54454C184.163 5.61364 184.076 5.75186 184.076 5.9007V7.96328C184.076 8.10149 184.197 8.21579 184.338 8.21579H203.436C203.582 8.21579 203.697 8.33008 203.695 8.4683V9.77335C203.695 9.91156 203.816 10.0259 203.956 10.0259H208.738C208.882 10.0259 209 9.91423 209 9.77601V3.73978C209 3.60157 208.882 3.48993 208.738 3.48727H203.956C203.813 3.48727 203.695 3.60157 203.695 3.73978V5.86881C203.695 6.00968 203.576 6.12397 203.433 6.12397H191.168C191.047 6.12397 190.915 6.06284 190.884 5.94057C190.85 5.81565 190.934 5.70136 191.047 5.65085C194.47 3.96039 197.894 2.26461 201.315 0.574147Z" fill="white"/>
<path d="M10.6768 40.5709C9.84694 40.5709 9.19712 40.3852 8.72452 40.0111C8.25193 39.6369 8.01282 39.0068 8.01282 38.1207V27.732H10.4827V37.3583C10.4827 37.8197 10.5586 38.1713 10.7134 38.416C10.8681 38.658 11.2057 38.7789 11.7261 38.7789H12.1874C12.4237 38.7789 12.6009 38.8689 12.7191 39.0462C12.8372 39.2234 12.8963 39.4372 12.8963 39.6847C12.8963 40.2783 12.66 40.5737 12.1846 40.5737H10.674L10.6768 40.5709Z" fill="#C52233"/>
<path d="M12.1875 40.5708C11.9512 40.5708 11.774 40.4836 11.6559 40.312C11.5377 40.1404 11.4786 39.9294 11.4786 39.6819C11.4786 39.0771 11.7149 38.7761 12.1903 38.7761H14.8374C15.0737 38.7761 15.251 38.8661 15.3691 39.0433C15.4873 39.2205 15.5463 39.4343 15.5463 39.6819C15.5463 40.2754 15.31 40.5708 14.8346 40.5708H12.1875Z" fill="#C52233"/>
<path d="M14.8148 40.5708C14.5785 40.5708 14.4013 40.4836 14.2831 40.312C14.165 40.1404 14.1059 39.9294 14.1059 39.6819C14.1059 39.0771 14.3422 38.7761 14.8176 38.7761H17.4647C17.701 38.7761 17.8782 38.8661 17.9964 39.0433C18.1145 39.2205 18.1736 39.4343 18.1736 39.6819C18.1736 40.2754 17.9373 40.5708 17.4619 40.5708H14.8148Z" fill="#C52233"/>
<path d="M17.4446 40.5708C17.2083 40.5708 17.0311 40.4836 16.9129 40.312C16.7948 40.1404 16.7357 39.9294 16.7357 39.6819C16.7357 39.0771 16.972 38.7761 17.4474 38.7761H20.0945C20.3308 38.7761 20.508 38.8661 20.6262 39.0433C20.7443 39.2205 20.8034 39.4343 20.8034 39.6819C20.8034 40.2754 20.5671 40.5708 20.0917 40.5708H17.4446Z" fill="#C52233"/>
<path d="M25.8452 27.0904L20.6776 27.729V26.6797L25.8452 26.0411V27.0876V27.0904ZM25.8452 28.6882L20.6776 29.3268V28.2775L25.8452 27.639V28.6882Z" fill="#C52233"/>
<path d="M26.0927 40.5706C25.7495 40.5706 25.4316 40.5144 25.1419 40.4018C24.8521 40.2893 24.613 40.0924 24.4217 39.8055C24.2811 39.9827 24.0673 40.1543 23.7832 40.3203C23.4991 40.4862 23.049 40.5678 22.4329 40.5678H20.0699C19.8336 40.5678 19.6564 40.4806 19.5382 40.309C19.4201 40.1374 19.361 39.9264 19.361 39.6789C19.361 39.0741 19.5973 38.7731 20.0727 38.7731H21.122C21.3949 38.7731 21.6087 38.7562 21.7606 38.7196C21.9153 38.683 22.0306 38.6183 22.1066 38.5227C22.1825 38.427 22.2304 38.2892 22.2472 38.1064C22.2641 37.9235 22.2754 37.676 22.2754 37.3693V33.0175H24.7452V38.0445C24.7452 38.1851 24.7874 38.3061 24.869 38.3989C24.9506 38.4946 25.0547 38.5677 25.1785 38.6212C25.3022 38.6746 25.4373 38.714 25.5779 38.7365C25.7186 38.759 25.8452 38.7731 25.9521 38.7731H26.4134C26.6497 38.7731 26.8269 38.8631 26.9451 39.0403C27.0632 39.2175 27.1223 39.4313 27.1223 39.6789C27.1223 40.2724 26.886 40.5678 26.4106 40.5678H26.0899L26.0927 40.5706ZM20.4975 43.1277C20.4975 42.7845 20.6185 42.4919 20.8604 42.25C21.1023 42.0081 21.3949 41.8871 21.7409 41.8871C22.0869 41.8871 22.3766 42.0081 22.6186 42.25C22.8605 42.4919 22.9814 42.7845 22.9814 43.1277C22.9814 43.4709 22.8605 43.7635 22.6186 44.0054C22.3766 44.2473 22.0813 44.3683 21.7409 44.3683C21.4005 44.3683 21.1051 44.2473 20.8604 44.0054C20.6185 43.7635 20.4975 43.4681 20.4975 43.1277ZM23.4456 43.1277C23.4456 42.7845 23.5666 42.4919 23.8085 42.25C24.0504 42.0081 24.343 41.8871 24.6862 41.8871C25.0294 41.8871 25.3219 42.0081 25.5667 42.25C25.8086 42.4919 25.9295 42.7845 25.9295 43.1277C25.9295 43.4709 25.8086 43.7635 25.5667 44.0054C25.3247 44.2473 25.0294 44.3683 24.6862 44.3683C24.343 44.3683 24.0504 44.2473 23.8085 44.0054C23.5666 43.7635 23.4456 43.4681 23.4456 43.1277Z" fill="#C52233"/>
<path d="M26.4127 40.5708C26.1764 40.5708 25.9992 40.4836 25.881 40.312C25.7629 40.1404 25.7038 39.9294 25.7038 39.6819C25.7038 39.0771 25.9401 38.7761 26.4155 38.7761H29.0626C29.2989 38.7761 29.4761 38.8661 29.5943 39.0433C29.7124 39.2205 29.7715 39.4343 29.7715 39.6819C29.7715 40.2754 29.5352 40.5708 29.0598 40.5708H26.4127Z" fill="#C52233"/>
<path d="M29.0406 40.5708C28.8043 40.5708 28.6271 40.4836 28.5089 40.312C28.3908 40.1404 28.3317 39.9294 28.3317 39.6819C28.3317 39.0771 28.568 38.7761 29.0434 38.7761H31.6905C31.9268 38.7761 32.1041 38.8661 32.2222 39.0433C32.3404 39.2205 32.3994 39.4343 32.3994 39.6819C32.3994 40.2754 32.1631 40.5708 31.6877 40.5708H29.0406Z" fill="#C52233"/>
<path d="M31.6704 40.5708C31.4341 40.5708 31.2569 40.4836 31.1388 40.312C31.0206 40.1404 30.9615 39.9294 30.9615 39.6819C30.9615 39.0771 31.1978 38.7761 31.6733 38.7761H34.3204C34.5567 38.7761 34.7339 38.8661 34.852 39.0433C34.9702 39.2205 35.0292 39.4343 35.0292 39.6819C35.0292 40.2754 34.793 40.5708 34.3175 40.5708H31.6704Z" fill="#C52233"/>
<path d="M40.338 40.5706C39.9948 40.5706 39.6769 40.5144 39.3872 40.4018C39.0974 40.2893 38.8583 40.0924 38.667 39.8055C38.5264 39.9827 38.3126 40.1543 38.0284 40.3202C37.7443 40.4862 37.2942 40.5678 36.6782 40.5678H34.2983C34.062 40.5678 33.8848 40.4806 33.7666 40.309C33.6485 40.1374 33.5894 39.9264 33.5894 39.6789C33.5894 39.0741 33.8257 38.7731 34.3011 38.7731H35.3673C35.6401 38.7731 35.8539 38.7562 36.0058 38.7196C36.1606 38.683 36.2759 38.6183 36.3519 38.5227C36.4278 38.427 36.4756 38.2892 36.4953 38.1064C36.5122 37.9235 36.5206 37.676 36.5206 37.3693V27.7261H38.9905V38.0445C38.9905 38.1851 39.0327 38.3061 39.1143 38.3989C39.1959 38.4946 39.3 38.5677 39.4237 38.6212C39.5475 38.6746 39.6825 38.714 39.8232 38.7365C39.9638 38.759 40.0904 38.7731 40.1973 38.7731H40.6755C40.9118 38.7731 41.0891 38.8631 41.2072 39.0403C41.3254 39.2175 41.3844 39.4313 41.3844 39.6789C41.3844 40.2724 41.1481 40.5678 40.6727 40.5678H40.3352L40.338 40.5706Z" fill="#C52233"/>
<path d="M40.6555 40.5708C40.4192 40.5708 40.242 40.4836 40.1238 40.312C40.0057 40.1404 39.9466 39.9294 39.9466 39.6819C39.9466 39.0771 40.1829 38.7761 40.6583 38.7761H43.3054C43.5417 38.7761 43.7189 38.8661 43.8371 39.0433C43.9552 39.2205 44.0143 39.4343 44.0143 39.6819C44.0143 40.2754 43.778 40.5708 43.3026 40.5708H40.6555Z" fill="#C52233"/>
<path d="M43.286 40.5708C43.0497 40.5708 42.8725 40.4836 42.7543 40.312C42.6362 40.1404 42.5771 39.9294 42.5771 39.6819C42.5771 39.0771 42.8134 38.7761 43.2888 38.7761H45.9359C46.1722 38.7761 46.3494 38.8661 46.4676 39.0433C46.5857 39.2205 46.6448 39.4343 46.6448 39.6819C46.6448 40.2754 46.4085 40.5708 45.9331 40.5708H43.286Z" fill="#C52233"/>
<path d="M45.9132 40.5708C45.6769 40.5708 45.4997 40.4836 45.3816 40.312C45.2634 40.1404 45.2043 39.9294 45.2043 39.6819C45.2043 39.0771 45.4406 38.7761 45.9161 38.7761H48.5632C48.7995 38.7761 48.9767 38.8661 49.0948 39.0433C49.213 39.2205 49.272 39.4343 49.272 39.6819C49.272 40.2754 49.0358 40.5708 48.5603 40.5708H45.9132Z" fill="#C52233"/>
<path d="M48.5437 40.5706C48.3074 40.5706 48.1302 40.4834 48.0121 40.3118C47.8939 40.1402 47.8348 39.9293 47.8348 39.6817C47.8348 39.0769 48.0711 38.7759 48.5465 38.7759H55.4189V37.1584C55.4189 36.6155 55.3598 36.1851 55.2417 35.87C55.1235 35.5549 54.9378 35.3158 54.6819 35.1499C54.4259 34.9839 54.0995 34.877 53.6973 34.8292C53.295 34.7813 52.8084 34.7588 52.2401 34.7588H49.5396V33.0175L54.5665 27.6361L56.1306 29.1102L52.5074 33.0175H52.738C53.5201 33.0175 54.229 33.0794 54.8703 33.2032C55.5089 33.327 56.0546 33.5436 56.5047 33.8502C56.9548 34.1568 57.3008 34.5732 57.5427 35.0936C57.7847 35.614 57.9056 36.2779 57.9056 37.0824V40.5622H48.5465L48.5437 40.5706Z" fill="#C52233"/>
<path d="M69.4473 40.6579C68.0971 40.6579 67.0619 40.3119 66.3389 39.6199C65.6159 38.9279 65.2559 38.008 65.2559 36.8575C65.2559 36.2526 65.3628 35.7069 65.5765 35.2146C65.7903 34.7223 66.0829 34.3032 66.4542 33.9544C66.8284 33.6055 67.2728 33.3355 67.7961 33.147C68.3165 32.9585 68.8847 32.8629 69.5008 32.8629C70.1169 32.8629 70.6851 32.9445 71.2055 33.1104C71.7259 33.2764 72.1732 33.524 72.5473 33.8559C72.9215 34.1878 73.2112 34.6014 73.4166 35.0993C73.6247 35.5972 73.7288 36.1767 73.7288 36.8406C73.7288 38.0249 73.3575 38.956 72.6177 39.6368C71.8778 40.3175 70.8201 40.6579 69.4473 40.6579ZM66.713 30.3564C66.713 30.0132 66.834 29.7207 67.0759 29.4788C67.3178 29.2368 67.6104 29.1159 67.9564 29.1159C68.3024 29.1159 68.5922 29.2368 68.8341 29.4788C69.076 29.7207 69.197 30.0132 69.197 30.3564C69.197 30.6996 69.076 30.9922 68.8341 31.2341C68.5922 31.476 68.2968 31.597 67.9564 31.597C67.616 31.597 67.3207 31.476 67.0759 31.2341C66.834 30.9922 66.713 30.6996 66.713 30.3564ZM69.4473 38.8632C69.6836 38.8632 69.9087 38.8266 70.1225 38.7563C70.3363 38.686 70.5219 38.5706 70.6823 38.4103C70.8426 38.2499 70.9692 38.0474 71.0649 37.797C71.1605 37.5495 71.2055 37.2457 71.2055 36.8912C71.2055 36.4777 71.1605 36.1261 71.0733 35.8419C70.9833 35.5578 70.8623 35.3271 70.7104 35.1499C70.5557 34.9727 70.3757 34.8461 70.1675 34.7673C69.9593 34.6914 69.7371 34.652 69.5008 34.652C69.2982 34.652 69.0985 34.6886 68.896 34.7589C68.6934 34.8292 68.5106 34.953 68.3446 35.1218C68.1786 35.2934 68.0436 35.5212 67.9367 35.8054C67.8298 36.0895 67.7764 36.4439 67.7764 36.8715C67.7764 37.5832 67.9423 38.0924 68.2743 38.399C68.6062 38.7056 68.9972 38.8604 69.4473 38.8604V38.8632ZM69.6611 30.3564C69.6611 30.0132 69.7821 29.7207 70.024 29.4788C70.2659 29.2368 70.5585 29.1159 70.9017 29.1159C71.2449 29.1159 71.5374 29.2368 71.7822 29.4788C72.0241 29.7207 72.1451 30.0132 72.1451 30.3564C72.1451 30.6996 72.0241 30.9922 71.7822 31.2341C71.5403 31.476 71.2449 31.597 70.9017 31.597C70.5585 31.597 70.2659 31.476 70.024 31.2341C69.7821 30.9922 69.6611 30.6996 69.6611 30.3564Z" fill="#C52233"/>
<path d="M84.0977 40.5708C83.7546 40.5708 83.4339 40.5146 83.1385 40.402C82.8431 40.2895 82.5984 40.0926 82.4099 39.8057C82.2664 39.9941 82.0414 40.1686 81.7348 40.3289C81.4281 40.4892 80.964 40.568 80.3507 40.568H75.2366V38.7733H78.9133C79.1974 38.7733 79.428 38.7311 79.6053 38.6495C79.7825 38.5679 79.9232 38.4526 80.0216 38.3035C80.1229 38.1544 80.1876 37.98 80.2157 37.7803C80.2438 37.5805 80.2607 37.3527 80.2607 37.1051C80.2607 36.7507 80.2354 36.4272 80.182 36.1374C80.1285 35.8477 80.0104 35.5973 79.8275 35.392C79.6447 35.1838 79.3774 35.0291 79.0286 34.9222C78.6798 34.8153 78.2156 34.7618 77.6333 34.7618H76.3365V33.0205H77.864C78.8711 33.0205 79.6925 33.119 80.3339 33.3131C80.9752 33.5072 81.4703 33.7829 81.8248 34.1401C82.1792 34.4946 82.4212 34.9222 82.5534 35.4201C82.6828 35.918 82.7475 36.475 82.7475 37.0882V38.0475C82.7475 38.1882 82.7897 38.3091 82.8713 38.4019C82.9528 38.4976 83.0569 38.5707 83.1835 38.6242C83.3101 38.6776 83.4423 38.717 83.583 38.7395C83.7264 38.762 83.8502 38.7761 83.9571 38.7761H84.2778C84.5141 38.7761 84.6913 38.8661 84.8095 39.0433C84.9276 39.2206 84.9867 39.4343 84.9867 39.6819C84.9867 40.2754 84.7504 40.5708 84.275 40.5708H84.0977Z" fill="#C52233"/>
<path d="M84.2752 40.5708C84.0389 40.5708 83.8617 40.4836 83.7435 40.312C83.6254 40.1404 83.5663 39.9294 83.5663 39.6819C83.5663 39.0771 83.8026 38.7761 84.278 38.7761H86.9251C87.1614 38.7761 87.3386 38.8661 87.4568 39.0433C87.5749 39.2205 87.634 39.4343 87.634 39.6819C87.634 40.2754 87.3977 40.5708 86.9223 40.5708H84.2752Z" fill="#C52233"/>
<path d="M86.9057 40.5708C86.6694 40.5708 86.4921 40.4836 86.374 40.312C86.2558 40.1404 86.1968 39.9294 86.1968 39.6819C86.1968 39.0771 86.4331 38.7761 86.9085 38.7761H89.5556C89.7919 38.7761 89.9691 38.8661 90.0873 39.0433C90.2054 39.2205 90.2645 39.4343 90.2645 39.6819C90.2645 40.2754 90.0282 40.5708 89.5528 40.5708H86.9057Z" fill="#C52233"/>
<path d="M89.5329 40.5708C89.2966 40.5708 89.1194 40.4836 89.0013 40.312C88.8831 40.1404 88.824 39.9294 88.824 39.6819C88.824 39.0771 89.0603 38.7761 89.5357 38.7761H92.1828C92.4191 38.7761 92.5964 38.8661 92.7145 39.0433C92.8327 39.2205 92.8917 39.4343 92.8917 39.6819C92.8917 40.2754 92.6554 40.5708 92.18 40.5708H89.5329Z" fill="#C52233"/>
<path d="M92.1628 40.5708C91.9265 40.5708 91.7492 40.4836 91.6311 40.312C91.5129 40.1404 91.4539 39.9294 91.4539 39.6819C91.4539 39.0771 91.6902 38.7761 92.1656 38.7761H94.2079V33.0205H96.6777V40.568H92.1656L92.1628 40.5708ZM92.1093 43.1279C92.1093 42.7847 92.2303 42.4922 92.4722 42.2502C92.7141 42.0083 93.0067 41.8873 93.3527 41.8873C93.6987 41.8873 93.9884 42.0083 94.2304 42.2502C94.4723 42.4922 94.5932 42.7847 94.5932 43.1279C94.5932 43.4711 94.4723 43.7637 94.2304 44.0056C93.9884 44.2475 93.6959 44.3685 93.3527 44.3685C93.0095 44.3685 92.7169 44.2475 92.4722 44.0056C92.2303 43.7637 92.1093 43.4683 92.1093 43.1279ZM95.0574 43.1279C95.0574 42.7847 95.1784 42.4922 95.4203 42.2502C95.6622 42.0083 95.9548 41.8873 96.3008 41.8873C96.6468 41.8873 96.9365 42.0083 97.1785 42.2502C97.4204 42.4922 97.5413 42.7847 97.5413 43.1279C97.5413 43.4711 97.4204 43.7637 97.1785 44.0056C96.9365 44.2475 96.6412 44.3685 96.3008 44.3685C95.9604 44.3685 95.665 44.2475 95.4203 44.0056C95.1784 43.7637 95.0574 43.4683 95.0574 43.1279Z" fill="#C52233"/>
<path d="M107.401 40.5708C107.058 40.5708 106.738 40.5146 106.442 40.402C106.147 40.2895 105.902 40.0926 105.714 39.8057C105.573 39.9941 105.345 40.1686 105.038 40.3289C104.732 40.4892 104.268 40.568 103.652 40.568H98.5374V38.7733H102.214C102.498 38.7733 102.729 38.7311 102.906 38.6495C103.083 38.5679 103.224 38.4526 103.322 38.3035C103.424 38.1544 103.488 37.98 103.517 37.7803C103.547 37.5805 103.562 37.3527 103.562 37.1051C103.562 36.7507 103.533 36.4272 103.48 36.1374C103.427 35.8477 103.308 35.5973 103.126 35.392C102.943 35.1838 102.675 35.0291 102.327 34.9222C101.978 34.8153 101.514 34.7618 100.931 34.7618H99.6345V33.0205H101.162C102.169 33.0205 102.991 33.119 103.632 33.3131C104.27 33.5072 104.768 33.7829 105.123 34.1401C105.477 34.4974 105.722 34.9222 105.851 35.4201C105.981 35.918 106.048 36.475 106.048 37.0882V38.0475C106.048 38.1882 106.091 38.3091 106.172 38.4019C106.254 38.4976 106.358 38.5707 106.484 38.6242C106.608 38.6776 106.74 38.717 106.884 38.7395C107.024 38.762 107.151 38.7761 107.258 38.7761H107.579C107.815 38.7761 107.992 38.8661 108.11 39.0433C108.228 39.2206 108.288 39.4343 108.288 39.6819C108.288 40.2754 108.051 40.5708 107.579 40.5708H107.401Z" fill="#C52233"/>
<path d="M107.579 40.5708C107.342 40.5708 107.165 40.4836 107.047 40.312C106.929 40.1404 106.87 39.9294 106.87 39.6819C106.87 39.0771 107.106 38.7761 107.581 38.7761H110.229C110.465 38.7761 110.642 38.8661 110.76 39.0433C110.878 39.2205 110.937 39.4343 110.937 39.6819C110.937 40.2754 110.701 40.5708 110.226 40.5708H107.579Z" fill="#C52233"/>
<path d="M110.206 40.5708C109.97 40.5708 109.792 40.4836 109.674 40.312C109.556 40.1404 109.497 39.9294 109.497 39.6819C109.497 39.0771 109.733 38.7761 110.209 38.7761H112.856C113.092 38.7761 113.269 38.8661 113.387 39.0433C113.506 39.2205 113.565 39.4343 113.565 39.6819C113.565 40.2754 113.328 40.5708 112.853 40.5708H110.206Z" fill="#C52233"/>
<path d="M112.836 40.5708C112.6 40.5708 112.423 40.4836 112.305 40.312C112.187 40.1404 112.127 39.9294 112.127 39.6819C112.127 39.0771 112.364 38.7761 112.839 38.7761H115.486C115.723 38.7761 115.9 38.8661 116.018 39.0433C116.136 39.2205 116.195 39.4343 116.195 39.6819C116.195 40.2754 115.959 40.5708 115.483 40.5708H112.836Z" fill="#C52233"/>
<path d="M115.464 40.5708C115.227 40.5708 115.05 40.4836 114.932 40.312C114.814 40.1404 114.755 39.9294 114.755 39.6819C114.755 39.077 114.991 38.7761 115.466 38.7761H120.527C120.409 38.6101 120.322 38.3907 120.268 38.1178C120.215 37.8449 120.17 37.5552 120.136 37.2486C120.1 36.9419 120.055 36.6297 119.995 36.3174C119.936 36.0052 119.838 35.7211 119.703 35.4735C119.568 35.226 119.371 35.0206 119.118 34.8603C118.865 34.6999 118.53 34.6211 118.114 34.6211C117.841 34.6211 117.551 34.6465 117.244 34.6915C116.938 34.7393 116.67 34.7927 116.445 34.8518V33.2709C116.659 33.1752 116.952 33.0852 117.323 32.9952C117.694 32.9052 118.13 32.863 118.628 32.863C119.351 32.863 119.931 32.9699 120.37 33.1837C120.808 33.3975 121.152 33.676 121.399 34.0192C121.647 34.3623 121.832 34.7505 121.951 35.1809C122.069 35.6142 122.167 36.0474 122.243 36.4862C122.319 36.9251 122.406 37.3442 122.502 37.7465C122.598 38.1487 122.755 38.4919 122.98 38.7761H124.029C124.266 38.7761 124.443 38.8661 124.561 39.0433C124.679 39.2205 124.738 39.4343 124.738 39.6819C124.738 40.2754 124.502 40.5708 124.029 40.5708H115.469H115.464ZM117.222 43.0941C117.222 42.7509 117.343 42.4584 117.585 42.2164C117.827 41.9745 118.119 41.8536 118.462 41.8536C118.806 41.8536 119.098 41.9745 119.343 42.2164C119.588 42.4584 119.706 42.7509 119.706 43.0941C119.706 43.4373 119.585 43.7299 119.343 43.9718C119.101 44.2137 118.806 44.3347 118.462 44.3347C118.119 44.3347 117.827 44.2137 117.585 43.9718C117.343 43.7299 117.222 43.4345 117.222 43.0941Z" fill="#C52233"/>
<path d="M124.024 40.5708C123.788 40.5708 123.611 40.4836 123.492 40.312C123.374 40.1404 123.315 39.9294 123.315 39.6819C123.315 39.0771 123.552 38.7761 124.027 38.7761H126.674C126.91 38.7761 127.088 38.8661 127.206 39.0433C127.324 39.2205 127.383 39.4343 127.383 39.6819C127.383 40.2754 127.147 40.5708 126.671 40.5708H124.024Z" fill="#C52233"/>
<path d="M126.651 40.5708C126.415 40.5708 126.238 40.4836 126.12 40.312C126.002 40.1404 125.942 39.9294 125.942 39.6819C125.942 39.0771 126.179 38.7761 126.654 38.7761H129.301C129.538 38.7761 129.715 38.8661 129.833 39.0433C129.951 39.2205 130.01 39.4343 130.01 39.6819C130.01 40.2754 129.774 40.5708 129.298 40.5708H126.651Z" fill="#C52233"/>
<path d="M129.281 40.5708C129.045 40.5708 128.868 40.4836 128.75 40.312C128.631 40.1404 128.572 39.9294 128.572 39.6819C128.572 39.0771 128.809 38.7761 129.284 38.7761H131.931C132.167 38.7761 132.345 38.8661 132.463 39.0433C132.581 39.2205 132.64 39.4343 132.64 39.6819C132.64 40.2754 132.404 40.5708 131.928 40.5708H129.281Z" fill="#C52233"/>
<path d="M131.909 40.5706C131.673 40.5706 131.496 40.4834 131.377 40.3118C131.259 40.1403 131.2 39.9293 131.2 39.6817C131.2 39.0769 131.436 38.7759 131.912 38.7759H134.151V27.729H136.621V40.5706H131.915H131.909Z" fill="#C52233"/>
<path d="M141.659 27.729V40.5706H139.189V27.729H141.659Z" fill="#C52233"/>
<path d="M154.715 38.1908H161.446V40.5707H150.329V38.0136C154.664 35.3834 157.843 33.4142 157.843 31.3522C157.843 30.2158 157.027 29.7882 156.121 29.7882C154.754 29.7882 154.256 30.5505 154.203 31.5829H150.686C150.686 28.8655 153.013 27.4083 156.121 27.4083C159.514 27.4083 161.466 28.8824 161.466 31.3522C161.466 34.5676 155.941 37.6563 154.717 38.1908H154.715Z" fill="#C52233"/>
<path d="M169.261 40.9083C165.317 40.9083 163.398 38.2274 163.398 34.036C163.398 29.8445 165.584 27.4112 169.261 27.4112C173.185 27.4112 175.123 30.0048 175.123 34.036C175.123 38.0671 173.241 40.9083 169.261 40.9083ZM169.261 29.6841C167.59 29.6841 167.021 31.4592 167.021 34.036C167.021 37.0741 167.643 38.6353 169.261 38.6353C170.878 38.6353 171.5 36.9137 171.5 34.036C171.5 31.1582 170.931 29.6841 169.261 29.6841Z" fill="#C52233"/>
<path d="M181.07 38.1908H187.802V40.5707H176.685V38.0136C181.02 35.3834 184.199 33.4142 184.199 31.3522C184.199 30.2158 183.383 29.7882 182.477 29.7882C181.11 29.7882 180.612 30.5505 180.558 31.5829H177.042C177.042 28.8655 179.368 27.4083 182.477 27.4083C185.869 27.4083 187.822 28.8824 187.822 31.3522C187.822 34.5676 182.297 37.6563 181.073 38.1908H181.07Z" fill="#C52233"/>
<path d="M195.971 40.9083C190.837 40.9083 189.985 37.4792 189.985 34.2835C189.985 30.092 191.743 27.4112 195.864 27.4112C199.985 27.4112 200.925 29.2762 201.051 30.8741H197.535C197.411 30.0751 196.95 29.6841 195.92 29.6841C194.199 29.6841 193.611 31.0878 193.504 33.5746C194.019 32.8291 195.262 32.2075 196.753 32.2075C199.116 32.2075 201.423 33.3974 201.423 36.4524C201.423 39.5074 198.615 40.9111 195.971 40.9111V40.9083ZM195.704 34.4438C194.674 34.4438 193.645 35.2062 193.645 36.5396C193.645 37.7126 194.283 38.6353 195.704 38.6353C197.017 38.6353 197.836 37.6929 197.836 36.5396C197.836 35.0824 196.84 34.4438 195.704 34.4438Z" fill="#C52233"/>
</svg>
