<svg width="34" height="34" viewBox="0 0 34 34" fill="none" xmlns="http://www.w3.org/2000/svg">
<path d="M24.0833 21.25V24.0833M24.0961 26.9167H24.0833M31.1667 24.0833C31.1667 27.9953 27.9953 31.1667 24.0833 31.1667C20.1714 31.1667 17 27.9953 17 24.0833C17 20.1714 20.1714 17 24.0833 17C27.9953 17 31.1667 20.1714 31.1667 24.0833Z" stroke="black" stroke-width="2.125" stroke-linecap="round"/>
<path d="M20.3773 13.3698C19.492 12.5457 18.3049 12.0417 17 12.0417C14.2615 12.0417 12.0416 14.2616 12.0416 17C12.0416 18.3049 12.5457 19.492 13.3697 20.3773" stroke="black" stroke-width="2.125" stroke-linecap="round"/>
<path d="M13.855 28.951C13.2238 28.3197 13.017 28.1302 12.6165 27.9635C12.2138 27.7956 11.7948 27.7895 10.8966 27.7895C8.76042 27.7895 7.53788 27.7895 6.87426 27.1258C6.21062 26.4622 6.21062 25.2396 6.21062 23.1034C6.21062 22.2101 6.20477 21.7908 6.03928 21.3898C5.87316 20.9875 5.58121 20.6865 4.94656 20.0517C4.14746 19.2525 2.83337 18.255 2.83337 17C2.83337 15.7448 4.14742 14.7474 4.94656 13.9483C5.57825 13.3166 5.8704 13.0163 6.03698 12.6156C6.20435 12.2131 6.21062 11.7941 6.21062 10.8966C6.21062 8.76039 6.21062 7.53785 6.87426 6.87423C7.53788 6.21059 8.76042 6.21059 10.8966 6.21059C11.788 6.21059 12.2069 6.20501 12.6074 6.04038C13.0115 5.87425 13.3123 5.58258 13.9483 4.94653C14.7474 4.14739 15.8814 2.83334 17 2.83334C18.1186 2.83334 19.2525 4.14743 20.0517 4.94654C20.6875 5.5822 20.9887 5.87403 21.3918 6.04004C21.7922 6.2049 22.2115 6.21059 23.1035 6.21059C25.2397 6.21059 26.4622 6.21059 27.1258 6.87423C27.7895 7.53785 27.7895 8.76039 27.7895 10.8966C27.7895 11.7921 27.7953 12.2111 27.9619 12.6129C28.1287 13.0149 28.3179 13.2049 28.951 13.838" stroke="black" stroke-width="2.125" stroke-linecap="round"/>
</svg>
