<svg width="96" height="16" viewBox="0 0 96 16" fill="none" xmlns="http://www.w3.org/2000/svg">
<path d="M13.1291 14.8305C14.3282 13.919 15.1951 11.2697 15.1951 8.13833C15.1951 8.0087 15.1951 7.88312 15.191 7.75349C18.7153 7.22687 21.2391 5.79689 21.2391 4.11575C21.2391 4.03878 21.2309 3.96587 21.2228 3.8889C22.1222 4.96645 22.6366 6.22224 22.6366 7.55904C22.6366 11.375 18.4561 14.5023 13.1291 14.8305ZM1.78241 7.55904C1.78241 6.22224 2.29688 4.9705 3.19619 3.8889C3.18403 3.96181 3.17998 4.03878 3.17998 4.11575C3.17998 5.80094 5.70777 7.23092 9.23208 7.75349C9.23208 7.88312 9.22803 8.0087 9.22803 8.13833C9.22803 11.2656 10.0949 13.915 11.294 14.8305C5.96298 14.5064 1.78241 11.375 1.78241 7.55904ZM15.029 5.80904C14.6198 3.07061 13.5139 1.10591 12.2095 1.10591C10.9051 1.10591 9.79921 3.07061 9.39007 5.80904C6.9109 5.42015 5.17709 4.5411 5.17709 3.51216C5.17709 2.12674 8.32467 1.00463 12.2095 1.00463C16.0944 1.00463 19.2419 2.12674 19.2419 3.51216C19.2419 4.53705 17.5081 5.42015 15.029 5.80904ZM10.4595 5.94272C10.735 4.19677 11.4155 2.96123 12.2095 2.96123C13.0035 2.96123 13.6841 4.19677 13.9595 5.94272C13.4005 5.99133 12.8131 6.01969 12.2095 6.01969C11.6059 6.01969 11.0185 5.99133 10.4595 5.94272ZM12.2095 12.3554C11.2049 12.3554 10.3825 10.3785 10.3339 7.89122C10.9375 7.94794 11.5654 7.97629 12.2095 7.97629C12.8536 7.97629 13.4815 7.94794 14.0851 7.89122C14.0365 10.3785 13.2141 12.3554 12.2095 12.3554ZM17.6378 0.773728C16.1268 0.287616 14.2471 0 12.2095 0C10.1719 0 8.29226 0.287616 6.78126 0.773728C2.76274 2.06598 0 4.7477 0 7.84666C0 12.2095 5.46471 15.746 12.2095 15.746C18.9543 15.746 24.419 12.2095 24.419 7.84666C24.419 4.74365 21.6563 2.06193 17.6378 0.769677" fill="#E91E25"/>
<path d="M37.4469 2.24828H27.7773V4.38717H31.3461V13.5018H33.878V4.38717H37.4469V2.24828Z" fill="#E91E25"/>
<path d="M46.8977 9.68171C46.5128 10.6701 45.6297 11.4074 44.5643 11.5938C44.3739 11.6262 44.1755 11.6464 43.977 11.6464C43.7785 11.6464 43.58 11.6262 43.3896 11.5938C42.3242 11.4034 41.4411 10.6661 41.0522 9.68171C40.8334 9.12268 40.7119 8.51504 40.7119 7.87499C40.7119 7.23495 40.8334 6.62731 41.0522 6.06828C41.4411 5.0839 42.3201 4.34663 43.3896 4.15624C43.58 4.11978 43.7785 4.10357 43.977 4.10357C44.1755 4.10357 44.3739 4.11978 44.5643 4.15624C45.6297 4.34663 46.5128 5.0839 46.8977 6.06828C47.1164 6.62731 47.238 7.23495 47.238 7.87499C47.238 8.51504 47.1164 9.12268 46.8977 9.68171ZM43.977 1.91202C40.6835 1.91202 38.014 4.58158 38.014 7.87499C38.014 11.1684 40.6835 13.842 43.977 13.842C47.2704 13.842 49.9399 11.1725 49.9399 7.87499C49.9399 4.57753 47.2704 1.91202 43.977 1.91202Z" fill="#E91E25"/>
<path d="M49.9804 2.24828H52.9619L55.7449 7.08915L58.5319 2.24828H61.5094L57.0128 9.34146V13.5018H54.481V9.34146L49.9804 2.24828Z" fill="#E91E25"/>
<path d="M67.525 11.6464C67.7235 11.6464 67.922 11.6262 68.1124 11.5938C69.1819 11.4074 70.0609 10.6661 70.4498 9.68171C70.6686 9.12268 70.7901 8.51504 70.7901 7.87499C70.7901 7.23495 70.6686 6.62731 70.4498 6.06828C70.0609 5.0839 69.1819 4.34663 68.1124 4.15624C67.922 4.12383 67.7235 4.10357 67.525 4.10357C67.3265 4.10357 67.128 4.12383 66.9377 4.15624C65.8723 4.34663 64.9892 5.0839 64.6003 6.06828C64.3815 6.62731 64.26 7.23495 64.26 7.87499C64.26 8.51504 64.3815 9.12268 64.6003 9.68171C64.9851 10.6661 65.8682 11.4074 66.9377 11.5938C67.128 11.6262 67.3265 11.6464 67.525 11.6464ZM61.5621 7.87499C61.5621 4.58158 64.2316 1.91202 67.525 1.91202C70.8184 1.91202 73.488 4.58158 73.488 7.87499C73.488 11.1684 70.8184 13.838 67.525 13.838C64.2316 13.838 61.5621 11.1684 61.5621 7.87499Z" fill="#E91E25"/>
<path d="M90.7571 9.04978L89.1003 4.60591L87.4394 9.04978H90.7571ZM91.4944 11.0185H86.7021L85.7785 13.4937H82.9631L87.5204 2.24421H90.668L95.2294 13.4937H92.414L91.4903 11.0185H91.4944Z" fill="#E91E25"/>
<path d="M83.7085 2.24828H74.0389V4.38717H77.6078V13.5018H80.1397V4.38717H83.7085V2.24828Z" fill="#E91E25"/>
</svg>
