<svg width="34" height="34" viewBox="0 0 34 34" fill="none" xmlns="http://www.w3.org/2000/svg">
<path d="M21.25 30.4585C23.2255 30.4585 24.2133 30.4585 25.0285 30.2628C27.6186 29.6409 29.6407 27.6188 30.2625 25.0287C30.4583 24.2135 30.4583 23.2257 30.4583 21.2501M12.75 30.4585C10.7744 30.4585 9.78659 30.4585 8.97138 30.2628C6.38138 29.6409 4.35914 27.6188 3.73734 25.0287C3.54163 24.2135 3.54163 23.2257 3.54163 21.2501M12.75 3.54184C10.7744 3.54184 9.78659 3.54184 8.97138 3.73755C6.38138 4.35937 4.35914 6.38159 3.73734 8.97161C3.54163 9.7868 3.54163 10.7746 3.54163 12.7502M21.25 3.54184C23.2255 3.54184 24.2133 3.54184 25.0285 3.73755C27.6186 4.35937 29.6407 6.38159 30.2625 8.97161C30.4583 9.7868 30.4583 10.7746 30.4583 12.7502" stroke="black" stroke-width="1.5" stroke-linecap="round" stroke-linejoin="round"/>
<path d="M21.25 13.4583C21.25 11.1111 19.3473 9.20834 17 9.20834C14.6527 9.20834 12.75 11.1111 12.75 13.4583C12.75 15.8056 14.6527 17.7083 17 17.7083C19.3473 17.7083 21.25 15.8056 21.25 13.4583Z" stroke="black" stroke-width="1.5" stroke-linecap="round" stroke-linejoin="round"/>
<path d="M24.0833 24.7917C24.0833 20.8797 20.9119 17.7083 17 17.7083C13.0879 17.7083 9.91663 20.8797 9.91663 24.7917" stroke="black" stroke-width="1.5" stroke-linecap="round" stroke-linejoin="round"/>
</svg>
